<mxfile host="app.diagrams.net" modified="2022-02-17T08:09:06.023Z" agent="5.0 (X11; Linux x86_64) AppleWebKit/537.36 (KHTML, like Gecko) Chrome/98.0.4758.80 Safari/537.36" etag="66oQzs5cYC-H09ft4Frf" version="16.5.6" type="github">
  <diagram id="C5RBs43oDa-KdzZeNtuy" name="Page-1">
    <mxGraphModel dx="401" dy="1396" grid="1" gridSize="10" guides="1" tooltips="1" connect="1" arrows="1" fold="1" page="1" pageScale="1" pageWidth="827" pageHeight="1169" math="0" shadow="0">
      <root>
        <mxCell id="WIyWlLk6GJQsqaUBKTNV-0" />
        <mxCell id="WIyWlLk6GJQsqaUBKTNV-1" parent="WIyWlLk6GJQsqaUBKTNV-0" />
        <mxCell id="WIyWlLk6GJQsqaUBKTNV-12" value="Shahboz Olmasov" style="rounded=1;whiteSpace=wrap;html=1;fontSize=12;glass=0;strokeWidth=1;shadow=0;" parent="WIyWlLk6GJQsqaUBKTNV-1" vertex="1">
          <mxGeometry x="260" y="-10" width="120" height="100" as="geometry" />
        </mxCell>
        <mxCell id="coqYhIlHWoZ9kxEcaYfJ-0" value="" style="shape=image;verticalLabelPosition=bottom;labelBackgroundColor=default;verticalAlign=top;aspect=fixed;imageAspect=0;image=data:image/jpeg,/9j/4AAQSkZJRgABAQAAAQABAAD/2wCEAAkGBw0NDw0NDQ0ODQ0NDQ0NDQ0NDQ8NDQ0NFREWFhYRExUYHDQgJBolHRUWLTIhMSk3Oi46Fys/RDMsOC4tOisBCgoKDQ0NDw0NDysZFRkrNzcrKzcrKzc3KzcrLSstLSsrKystKystLS03KysrKysrKysrKysrKysrKysrKysrK//AABEIANEA8gMBIgACEQEDEQH/xAAcAAEBAAIDAQEAAAAAAAAAAAAAAQIIAwYHBQT/xABAEAACAgECAQgIAggEBwAAAAAAAQIDBAUREgYHEyExQVFhFBVSVHGBlNIigggyQmKRkqHRI3KTwRYXM0NTsbL/xAAWAQEBAQAAAAAAAAAAAAAAAAAAAQL/xAAWEQEBAQAAAAAAAAAAAAAAAAAAEQH/2gAMAwEAAhEDEQA/APYUjkjEkYnLFGGhIzSIjIgFAAAAoAoCAAAAAAAAAAAAACAoAgAChCggxaMGjkI0BwyRxtHO0cckURAySARlFGaREZpEUKgAAAKBQAgAAAAAAAAAAAAAAAAAABCgCAAKEKCDBoxkjkMWgMFEGQKMkihFIAAKBQAgAAAAAAAAAAAAAAAAAAAAAAAAQoAgAChi0ZEIJsDLYhUCgEUKQpUAAAAAAAAAAAPxaprGJhx48vKoxoPsd9sKuLyW762dD51ucb1UvQsJxlqFkFOdjSlDErl2SafU5vuXd2vuT1/zsy7JslfkW2X3T65W2zc5v5vu8i5iNnP+ZfJ/i4PWlG++2+1vB/Pw8P8AU7Bpmr4mZHjxMmjJiu2VFsLVH48L6jTw5sPKtx7I3UW2U3Qe8bapyrsj8JIsK3KB5PzW86Ms2yGnak4rKmtsbKW0I5Mkv+nZFdSs8GuqXk9t/WDKgAAAAAAAAAAEKQAAAoAAAAAoACAAAAAAAAB+fUMuGPTdkWPauiqy6x9m0IRcn/RH6DqvOne69E1SS7XjOv5WSjB//QGseq6jbmX35d73tyLZ3T8nJ/qryS2S8kflB2bm+1bTcLLlfqmKsqiOPZ0UXUrpQyE4uLUJPh60mt32brrXWbZdY4ltvv1LtfcvmVM9wxefHC41XLTLqsbdJzhZVKUY+PRJJfJMw54OSGDbg+u8CFdcoqmy2VKUacrGtcUrNl1cS44vi703vv1bFeKQnKLUoycJRalGcW4yjJPdST7mn3m2PIfW/WWnYea9uO6ra7ZbJXwbhZsvDijI1MNkOYzi9S079npOXw/5elf++5NMegAAyoAAAAAAAAAAIAAoAAAAAoACAAAAAAAAB53z5616Lpbx1BTlqFqxt5N7V1pdJKa8/wAKS+Pls/RDzznw0G3N02NlEJWW4V6yHCC4pSpcZQnsvFcSfwiy4NcgVprdNbNPZp9TTIaZfq0rTrsy+nExocd+RNV1x7t32yfhFLdt9yR7jztZtOl6HjaPGfSW204uJWntx+j46hxWyX5Ir4z8mfk5pNMx9K0rJ1/KjvZZVdOD6uKGJW2lCP705R+f4TyLlJruRqeVbmZMt7LXtGCbcKal+rVBd0V/VtvtbIr5h7t+j/r1t2PkadOMejweC2mcVtJq6yyUoy8fxb7PzPCoxbaSTbbSSSbbb6kkvE2Q5m+SlmmYMrciDry86cbbISW06qorauuXn1ybXdx7dw0x38AGVAAAAAAAAAABAVkCgAKAAIKAAgAAAAAAAAAANVuc3TJYmsajW01G3IllVt9koXf4m6/NKS/KdYNledHkHVrFSyIT6HMxarOCfApxuqScuhmt139j36uJ9T3NaN21uu1rdfE1iO+ZHOS7NFWhehJcOPVR6UsvrahOMuJ1dH38PZxd50U9/wBTjyd/4cn0fofR+gS6BrovSfTei/D+903H29/bv1bngCKOz82emSzNX06tJuNV8cqxrfaNdP8Aibv4uMV+ZG1J5/zO8k6MDAozeHizNQx67rbJfsUz/HCqC7ls47+L+C29AM6AAIoAAAAAAAAAADIVkAAAqgAIKAAgAAAAAAAAAdV5W84Gl6SpRuvVuSk9sTH2sv3/AHu6P5mvmB9flNqtWDh5WXc0q6aZy62vxSa2jBecpNJfE1Bgtkl4JI7Ty35c5utWLptqcauXFTh1ybrg/bm/2p+bXV3Jde/VzWYibLffZb+PeUAqNqObDUY5Wj6bOL3deNXjT8VZSujaf8v9TtBqlyL5Z5ujXdJjyU6ZtO/Fsb6K5dm/7s9uyS+e66jYbkfy707WIpY9qryOHezDuahkQ8Wl+1H95b/IzuK7OACKAAAAAAAAAAAyABQAFAAEFAAQAAAA+Ryt12vS8LJzrFxKmH4IdnSWyajCHzk119wHDyp5XafpEFPNv4JTTdVME7L7dvZguvbzey8zzTUeff8AE1iaY3Hunk5KhJ/khFrw/aPI9Y1TIzr7cvKsdt90uKcn2LwjFd0V2JH4zUSu28oucfWdR4o2ZcsemX/Yw98eG3g5J8b+ctvI6kkl2Lb4AFQAAAAACxk01JNqUWpRkm1KMl2NPufmQAd50DnX1rCiq5XQza0klHNg7JxXlZFqT+bZ3XRufSqTUc/AnUupO3FtVy3724SSaXwbPEQIrb7QdfwtSq6fCyIZFa2UuF7Trl7M4P8AFF+TR9I1A0DW8rTciGXh2uu2Haut12w767I98X4fNbPZm0vI/lHTq2HTm0rh40421N7ypvj+vW/9n3pp95ncH2gARQAAAABAAFAAKAIUgFIUqAAAHjv6RGqNVafgxfVbZdlWpPtVaUIJ+W9kv5T2I125+8rpNXjXvuqMHHhtu2lKU7Jvq8WpR/gi4jzgAGkAAAAAAAAAAAAAA9b/AEetWlDJzcBt8F1Mcqtb9SsrkoS282px/kPJDu3MxfKGuYKXZbDLql/l9HnP/wBwQGzQAMNAAAEKQAAAoAAIUxTKQUAFFBChA1q52MDLv1rULIYuRZDiohCdePbODUcetdTS27dzZUFzUae+ps33LL+kv+0eps33LL+kv+03CBaRp76mzfcsz6S/7R6mzfcsz6S/7TcICkae+ps33LM+kv8AtJ6nzfcsv6W/7TcMCkad+qcz3PL+lu+0eqsz3PK+mu+03EBKRpy9My/dMn6a77Sersn3XJ+nt/sbjgUjTj1fk+7ZH09v9jF4WR7vf/oW/wBjckCkaa+iX/8Agv8A9Gz+x2rmsjZTrWmWTrshHprIOUqpxinOmyC62vGS/ibQAUgACKAACAAKEKYsgy3IEQqMUZo4oszTIrMEKAABRQAERs4p2SXYjmAH4p5E/A4J5VnmfT2XgRwXggPjTzLfM4ZZ9/g/4n3uij7KJ0MPZQHwPWF/sv8AiZRz7/ZZ93oIeyh0EPZQHyIZlvgzmhlWeZ9JVR9lF6OPggPyQyJvuOaFku9HNwrwKBItlAAAAAQAKAEIBi2VmEmBQRSBRxxZyJn50zljIDmTKcaZmmQZAhQAAKKCAIoAAAAAAAAAAAAAAQAAAoAQgEbDZi2AbOOUiyZxSYHImDFdwKjjM4lAVnE5EAQVFAAoAKAAAAAIqAAAAAAABAAAAAUAAEDAIMWYsADikcbAKORdwACP/9k=;clipPath=inset(23.68% 28.93% 20.33% 24.38%);" vertex="1" parent="WIyWlLk6GJQsqaUBKTNV-1">
          <mxGeometry x="290" y="-10" width="42.495726495726494" height="44" as="geometry" />
        </mxCell>
      </root>
    </mxGraphModel>
  </diagram>
</mxfile>
